<svg xmlns="http://www.w3.org/2000/svg" xmlns:xlink="http://www.w3.org/1999/xlink" width="142" height="142" viewBox="0 0 142 142">
    <defs>
        <filter id="a" width="135.8%" height="135.8%" x="-17.9%" y="-17.9%" filterUnits="objectBoundingBox">
            <feOffset in="SourceAlpha" result="shadowOffsetOuter1"/>
            <feGaussianBlur in="shadowOffsetOuter1" result="shadowBlurOuter1" stdDeviation="5.5"/>
            <feColorMatrix in="shadowBlurOuter1" result="shadowMatrixOuter1" values="0 0 0 0 0.0549019608 0 0 0 0 0.462745098 0 0 0 0 0.470588235 0 0 0 0.300611413 0"/>
            <feMerge>
                <feMergeNode in="shadowMatrixOuter1"/>
                <feMergeNode in="SourceGraphic"/>
            </feMerge>
        </filter>
        <path id="b" d="M0 0h73.548v56.129H0z"/>
        <path id="d" d="M0 0h73.548v56.129H0z"/>
    </defs>
    <g fill="none" fill-rule="evenodd">
        <path d="M0 0h142v142H0z"/>
        <g filter="url(#a)" transform="translate(11 11)">
            <circle cx="60" cy="60" r="60" fill="#FFF"/>
            <g transform="translate(24.871 33.871)">
                <mask id="c" fill="#fff">
                    <use xlink:href="#b"/>
                </mask>
                <path fill="#0E7678" d="M70.914 56.129H2.635A2.64 2.64 0 0 1 0 53.489v-2.037a1.168 1.168 0 1 1 2.335 0v2.038a.3.3 0 0 0 .3.3h68.279a.3.3 0 0 0 .3-.3V2.64a.3.3 0 0 0-.3-.301h-2.035a1.167 1.167 0 0 1-1.168-1.17C67.711.523 68.233 0 68.88 0h2.035a2.64 2.64 0 0 1 2.635 2.64v50.85a2.64 2.64 0 0 1-2.635 2.639" mask="url(#c)"/>
            </g>
            <g transform="translate(21 30)">
                <mask id="e" fill="#fff">
                    <use xlink:href="#d"/>
                </mask>
                <path fill="#0E7678" d="M2.635 2.339a.3.3 0 0 0-.3.3v50.85a.3.3 0 0 0 .3.301h68.278a.3.3 0 0 0 .3-.3V2.64a.3.3 0 0 0-.3-.301H2.635zm68.278 53.79H2.635A2.64 2.64 0 0 1 0 53.489V2.64A2.64 2.64 0 0 1 2.635 0h68.278a2.64 2.64 0 0 1 2.635 2.64v50.85a2.64 2.64 0 0 1-2.635 2.639z" mask="url(#e)"/>
            </g>
            <path fill="#0E7678" d="M39.632 62.903a1.211 1.211 0 0 1-.857-2.07L48.93 50.678a1.211 1.211 0 1 1 1.714 1.715L40.49 62.548a1.21 1.21 0 0 1-.857.355"/>
            <path fill="#0E7678" d="M49.787 62.903c-.31 0-.62-.119-.857-.355L38.775 52.393a1.211 1.211 0 1 1 1.714-1.715l10.155 10.155a1.211 1.211 0 0 1-.857 2.07M64.793 62.903a1.211 1.211 0 0 1-.857-2.07l10.155-10.155a1.211 1.211 0 1 1 1.715 1.715L65.65 62.548a1.21 1.21 0 0 1-.858.355"/>
            <path fill="#0E7678" d="M74.948 62.903c-.31 0-.62-.119-.857-.355L63.936 52.393a1.211 1.211 0 1 1 1.715-1.715l10.155 10.155a1.211 1.211 0 0 1-.858 2.07M65.283 73.548c-.664 0-1.202-.524-1.202-1.173 0-3.396-2.829-6.158-6.307-6.158s-6.307 2.762-6.307 6.158c0 .649-.538 1.173-1.201 1.173s-1.201-.524-1.201-1.173c0-4.69 3.906-8.504 8.71-8.504 4.802 0 8.709 3.815 8.709 8.504 0 .649-.538 1.173-1.201 1.173M93.381 40.645H22.167c-.644 0-1.167-.432-1.167-.968 0-.535.523-.967 1.167-.967h71.214c.646 0 1.167.432 1.167.967 0 .536-.521.968-1.167.968M91.645 35.806a1.935 1.935 0 1 1-3.87 0 1.935 1.935 0 1 1 3.87 0M86.806 35.806a1.935 1.935 0 1 1-3.87 0 1.935 1.935 0 1 1 3.87 0"/>
        </g>
    </g>
</svg>
