<svg xmlns="http://www.w3.org/2000/svg" xmlns:xlink="http://www.w3.org/1999/xlink" width="140" height="140" viewBox="0 0 140 140">
    <defs>
        <path id="a" d="M90 52.929V15a5 5 0 0 0-5-5H15a5 5 0 0 0-5 5v70a5.002 5.002 0 0 0 3.245 4.683l53.22-53.219a5 5 0 0 1 7.07 0L90 52.93zm0 14.142l-20-20L27.071 90H85a5 5 0 0 0 5-5V67.071zM15 0h70c8.284 0 15 6.716 15 15v70c0 8.284-6.716 15-15 15H15c-8.284 0-15-6.716-15-15V15C0 6.716 6.716 0 15 0zm17 45c-7.18 0-13-5.82-13-13s5.82-13 13-13 13 5.82 13 13-5.82 13-13 13zm.5-10a2.5 2.5 0 1 0 0-5 2.5 2.5 0 0 0 0 5z"/>
    </defs>
    <use fill="#FFF" fill-rule="nonzero" transform="translate(20 20)" xlink:href="#a"/>
</svg>
